<svg xmlns="http://www.w3.org/2000/svg" viewBox="0 0 400 300" fill="none">
  <rect width="400" height="300" fill="#F5F5F4"/>
  <g transform="translate(140, 100)" stroke="#2E7D32" stroke-width="2" stroke-linecap="round" stroke-linejoin="round" fill="none">
    <path d="M10 80h100"/>
    <path d="M20 80V30a10 10 0 0 1 10-10h60a10 10 0 0 1 10 10v50"/>
    <path d="M10 40v40a5 5 0 0 0 5 5h0"/>
    <path d="M110 40v40a5 5 0 0 1-5 5h0"/>
    <rect x="10" y="35" width="15" height="45" rx="4"/>
    <rect x="95" y="35" width="15" height="45" rx="4"/>
    <path d="M20 80v15M100 80v15"/>
  </g>
  <text x="200" y="260" text-anchor="middle" font-family="system-ui" font-size="18" font-weight="600" fill="#1F2937">Living room</text>
</svg>
